<svg xmlns="http://www.w3.org/2000/svg" width="144.754" height="27.315" viewBox="0 0 144.754 27.315">
  <g id="Groupe_2" data-name="Groupe 2" transform="translate(-76 -12)">
    <g id="Groupe_1" data-name="Groupe 1" transform="translate(-645.668 -390.738)">
      <path id="Tracé_1" data-name="Tracé 1" d="M740.2,426.78a7.677,7.677,0,0,1-.695,2.9,6.913,6.913,0,0,1-1.923,2.444,8.184,8.184,0,0,1-2.874,1.464,12.744,12.744,0,0,1-7.611-.338,8.6,8.6,0,0,1-3.026-1.981,8.136,8.136,0,0,1-1.815-2.924,9.089,9.089,0,0,1-.439-1.8l.008.481.016.884a9.641,9.641,0,0,0,.688,3.484,8.137,8.137,0,0,0,1.938,2.845,8.594,8.594,0,0,0,3.108,1.85,12.735,12.735,0,0,0,7.618.015A8.186,8.186,0,0,0,738,434.519,6.918,6.918,0,0,0,739.819,432a7.78,7.78,0,0,0,.578-3.188l-.006-.353A8.531,8.531,0,0,0,740.2,426.78Z" transform="translate(-0.044 -7.022)" fill="#3db2ff"/>
      <path id="Tracé_2" data-name="Tracé 2" d="M732.667,426.355c.307.059.614.116.934.164.068.011.13.023.2.034.111.008.209.023.328.026a2.659,2.659,0,0,0,1.687-.364.968.968,0,0,0,.4-.766,1.236,1.236,0,0,0-.069-.447.688.688,0,0,0-.2-.257,2.883,2.883,0,0,0-.8-.448,9.429,9.429,0,0,0-1.663-.467,22.214,22.214,0,0,1-2.286-.565l-.014.591a2.69,2.69,0,0,0,.626,1.99A2.028,2.028,0,0,0,732.667,426.355Z" transform="translate(-2.806 -6.054)" fill="#3db2ff"/>
      <path id="Tracé_3" data-name="Tracé 3" d="M732.819,413.25a4.065,4.065,0,0,0,.994.461,16.56,16.56,0,0,0,1.949.5c.254.053.5.109.747.169v-.059l.017-.706a1.474,1.474,0,0,0-.491-1.14,2.4,2.4,0,0,0-1.708-.565,2.692,2.692,0,0,0-1.519.308.5.5,0,0,0-.268.476.779.779,0,0,0,.058.347A.692.692,0,0,0,732.819,413.25Z" transform="translate(-3.207 -2.706)" fill="#3db2ff"/>
      <path id="Tracé_4" data-name="Tracé 4" d="M743.376,417.463a8.342,8.342,0,0,1,1.106.788,5.716,5.716,0,0,1,1.306,1.593l.5-.009-.026-1.409-.016-.893-1.28-.031Z" transform="translate(-6.402 -4.343)" fill="#3db2ff"/>
      <path id="Tracé_5" data-name="Tracé 5" d="M725.37,419.04l-.061-.047a6.307,6.307,0,0,1-1.854-2.315,6.583,6.583,0,0,1-.573-2.289,6.949,6.949,0,0,0-.237,1.918l0,.176a7.722,7.722,0,0,0,.427,2.5l.348.008Z" transform="translate(-0.288 -3.436)" fill="#3db2ff"/>
      <path id="Tracé_6" data-name="Tracé 6" d="M765.5,413.322l-.043,1.763,3.881-.071,1.41-.026-.026-1.41,0-.13-1.157-.028Z" transform="translate(-12.916 -3.122)" fill="#3db2ff"/>
      <path id="Tracé_7" data-name="Tracé 7" d="M762.327,432.75l-1.41-.034-3.884-.094-.956-.023.012.632.026,1.41,1.41-.026,3.885-.071,1.41-.026-.026-1.41-.2-11.183-.228,9.415Z" transform="translate(-10.148 -5.659)" fill="#3db2ff"/>
      <path id="Tracé_8" data-name="Tracé 8" d="M749.517,411.159l-1.41-.034.034-1.41.069-2.842-.449.008.026,1.41.068,3.707.026,1.41,1.41-.026,4.064-.074.076,4.157.151-6.208Z" transform="translate(-7.696 -1.22)" fill="#3db2ff"/>
      <path id="Tracé_9" data-name="Tracé 9" d="M774.1,406.4l.026,1.41.174,9.552.266-10.97Z" transform="translate(-15.463 -1.078)" fill="#3db2ff"/>
      <path id="Tracé_10" data-name="Tracé 10" d="M784.319,426.8a1.325,1.325,0,0,0-.164-.013l-3.063-.074-.154,6.358-.034,1.409-1.41-.034-3.884-.094-.943-.023v.075l.025,1.409,1.41-.025,3.884-.07,1.41-.026-.025-1.41-.116-6.359,3.053-.056.021-.9A.839.839,0,0,0,784.319,426.8Z" transform="translate(-15.631 -7.071)" fill="#3db2ff"/>
      <path id="Tracé_11" data-name="Tracé 11" d="M796.27,420.621c.091.087.178.18.261.278.042.05.071.107.111.159a5.206,5.206,0,0,0,.491-.683,5.856,5.856,0,0,0,.8-2.557,5.945,5.945,0,0,1-.763,1.754A5.178,5.178,0,0,1,796.27,420.621Z" transform="translate(-22.003 -4.448)" fill="#3db2ff"/>
      <path id="Tracé_12" data-name="Tracé 12" d="M786.378,413.829l-2.3-.056-.03,1.206,2.1-.039a1.585,1.585,0,0,1,1.148.307,1.049,1.049,0,0,1,.344.764,1.207,1.207,0,0,0,.169-.673l.008-.353a1.051,1.051,0,0,0-.312-.8A1.584,1.584,0,0,0,786.378,413.829Z" transform="translate(-18.399 -3.255)" fill="#3db2ff"/>
      <path id="Tracé_13" data-name="Tracé 13" d="M795.046,433l-.034,1.409-1.409-.034-3.884-.094-.935-.023.019,1.063,1.41-.025,3.885-.071,1.409-.025-.025-1.41-.13-7.121a4.363,4.363,0,0,0-.145-1c0,.073.014.14.012.214Z" transform="translate(-19.795 -6.763)" fill="#3db2ff"/>
      <path id="Tracé_14" data-name="Tracé 14" d="M816.328,434.558l-.034,1.41-1.41-.034-13.771-.334-.927-.023.013.721,1.41-.026,13.773-.251,1.41-.026-.026-1.41-.068-3.708-.026-1.41-.221,0-.033,1.379Z" transform="translate(-23.158 -7.883)" fill="#3db2ff"/>
      <path id="Tracé_15" data-name="Tracé 15" d="M801.349,411.766l-1.41-.034.034-1.41.09-3.707.017-.689-.482.009.026,1.41.068,3.707.026,1.41,1.41-.026,3.534-.064.09,4.921.132-5.442Z" transform="translate(-22.984 -0.941)" fill="#3db2ff"/>
      <path id="Tracé_16" data-name="Tracé 16" d="M816.46,427.146l-.092-5.068-.123,5.063Z" transform="translate(-27.894 -5.704)" fill="#3db2ff"/>
      <path id="Tracé_17" data-name="Tracé 17" d="M816.6,414.561l-.006.232,3.319-.061,1.41-.026v-.031l-1.189-.029Z" transform="translate(-27.997 -3.487)" fill="#3db2ff"/>
      <path id="Tracé_18" data-name="Tracé 18" d="M848.237,431.98l0-.088-.008-.434-.251-.354-6.352-8.978-.178.263,6.132,9.5.236.365-.01.434,0,.176-.015.626.417-.008.015-.608Z" transform="translate(-35.327 -5.718)" fill="#3db2ff"/>
      <path id="Tracé_19" data-name="Tracé 19" d="M825.848,405.46l1.41.034,3.884.094.919.022-.006-.315-1.41.026-3.884.071-1.41.026.026,1.41.188,10.32.249-10.278Z" transform="translate(-30.58 -0.755)" fill="#3db2ff"/>
      <path id="Tracé_20" data-name="Tracé 20" d="M839.186,406.277l.432-.636.768.019,4.383.106.929.023-.014-.769-1.41.026-4.384.08-.768.014-.4.654-3.356,5.421-.017.717Z" transform="translate(-33.527 -0.673)" fill="#3db2ff"/>
      <path id="Tracé_21" data-name="Tracé 21" d="M834.8,434.853l-.027,1.1.491-.009-.026-1.41-.08-4.367-.236-.374Z" transform="translate(-33.357 -7.978)" fill="#3db2ff"/>
      <path id="Tracé_22" data-name="Tracé 22" d="M868.382,417.973l1.3.032v-.057l-.026-1.41-1.41.026-7.2.131-.027,1.1Z" transform="translate(-41.1 -4.07)" fill="#3db2ff"/>
      <path id="Tracé_23" data-name="Tracé 23" d="M851.6,405.692l1.41.034,13.006.315.943.023V406l-.026-1.41-1.41.026-13.008.237-1.41.026.026,1.41.2,10.705.24-9.892Z" transform="translate(-38.175 -0.547)" fill="#3db2ff"/>
      <path id="Tracé_24" data-name="Tracé 24" d="M873.392,424.749l-.026-1.41-.02-1.09-.061,2.5Z" transform="translate(-44.717 -5.755)" fill="#3db2ff"/>
      <path id="Tracé_25" data-name="Tracé 25" d="M870.524,433.373l-.068-3.708-.026-1.41-1.41.026-8.067.147-.015-.847-.161,0-.047,1.947,8.066.2,1.41.034-.034,1.41-.088,3.629.466-.009Z" transform="translate(-41.015 -7.326)" fill="#3db2ff"/>
      <path id="Tracé_26" data-name="Tracé 26" d="M876.763,406.037l1.41.034,7.885.191a9.574,9.574,0,0,1,3.267.606,7.106,7.106,0,0,1,2.475,1.592,6.767,6.767,0,0,1,1.5,2.323,6.861,6.861,0,0,1,.287.977l-.009-.515a7.144,7.144,0,0,0-.584-2.736,6.766,6.766,0,0,0-1.6-2.257,7.111,7.111,0,0,0-2.54-1.486,9.553,9.553,0,0,0-3.29-.467l-7.887.144-1.409.025.025,1.41.2,11.082.23-9.516Z" transform="translate(-45.598 -0.46)" fill="#3db2ff"/>
      <path id="Tracé_27" data-name="Tracé 27" d="M885.734,435.116l.458-.008-.026-1.41-.082-4.5-.207-.005Z" transform="translate(-48.389 -7.801)" fill="#3db2ff"/>
      <path id="Tracé_28" data-name="Tracé 28" d="M899.858,431.629l-.13-7.12a4.067,4.067,0,0,0-.405-1.717,5.121,5.121,0,0,1-.894,1.043,3.775,3.775,0,0,1,.261.278,3.852,3.852,0,0,1,.9,2.669l-.152,6.267.45-.008Z" transform="translate(-52.133 -5.915)" fill="#3db2ff"/>
      <path id="Tracé_29" data-name="Tracé 29" d="M889.582,416.75l-.025.027a1.95,1.95,0,0,1-1.2.322l-2.15.039-.044,1.854,2.3.056a1.954,1.954,0,0,0,1.213-.271c.075-.064.274-.235.288-.813l.009-.353a1.051,1.051,0,0,0-.313-.8A.837.837,0,0,0,889.582,416.75Z" transform="translate(-48.515 -4.133)" fill="#3db2ff"/>
      <path id="Tracé_30" data-name="Tracé 30" d="M903.905,424.322l-.061-.047a6.315,6.315,0,0,1-1.854-2.315c0-.009-.007-.02-.011-.029l-1.385.025.025,1.41.016.876,1.323.032Z" transform="translate(-52.772 -5.661)" fill="#3db2ff"/>
      <path id="Tracé_31" data-name="Tracé 31" d="M913.109,416.251a2.692,2.692,0,0,0-1.519.308.5.5,0,0,0-.269.476.787.787,0,0,0,.058.347.715.715,0,0,0,.221.2,4.053,4.053,0,0,0,.993.461,16.6,16.6,0,0,0,1.949.5q.383.079.747.169v-.059l.017-.706a1.473,1.473,0,0,0-.491-1.14A2.4,2.4,0,0,0,913.109,416.251Z" transform="translate(-55.935 -3.985)" fill="#3db2ff"/>
      <path id="Tracé_32" data-name="Tracé 32" d="M904.222,407.827a8.1,8.1,0,0,1,2.742-1.438,10.594,10.594,0,0,1,3.389-.432,10.862,10.862,0,0,1,3.705.69,8.425,8.425,0,0,1,2.8,1.756,7.284,7.284,0,0,1,1.722,2.56,7.564,7.564,0,0,1,.374,1.291l-.006-.313-.019-1.06a7.578,7.578,0,0,0-.65-2.951,7.283,7.283,0,0,0-1.829-2.485,8.409,8.409,0,0,0-2.875-1.635,10.848,10.848,0,0,0-3.73-.532,10.6,10.6,0,0,0-3.368.576,8.085,8.085,0,0,0-2.678,1.553,7.07,7.07,0,0,0-1.753,2.363,6.756,6.756,0,0,0-.6,2.96l0,.176a8.306,8.306,0,0,0,.221,1.8,6.71,6.71,0,0,1,.7-2.592A7.1,7.1,0,0,1,904.222,407.827Z" transform="translate(-53.023 -0.159)" fill="#3db2ff"/>
      <path id="Tracé_33" data-name="Tracé 33" d="M912.905,430.915a2.658,2.658,0,0,0,1.687-.364.963.963,0,0,0,.4-.766,1.21,1.21,0,0,0-.069-.447.674.674,0,0,0-.2-.257,2.871,2.871,0,0,0-.8-.448,9.147,9.147,0,0,0-1.555-.444,3.615,3.615,0,0,1-.8-.176c-.553-.124-1.092-.258-1.6-.413l-.014.591a2.691,2.691,0,0,0,.626,1.99A3.211,3.211,0,0,0,912.905,430.915Z" transform="translate(-55.535 -7.333)" fill="#3db2ff"/>
      <path id="Tracé_34" data-name="Tracé 34" d="M922.156,421.8a8.248,8.248,0,0,1,1.106.788,6.086,6.086,0,0,1,2.088,4.5,8.26,8.26,0,0,0,.2-1.975l-.006-.353a7.559,7.559,0,0,0-.581-2.888l-1.22-.03Z" transform="translate(-59.131 -5.622)" fill="#3db2ff"/>
      <path id="Tracé_35" data-name="Tracé 35" d="M723.165,423.917l1.946-.035-.063-.044a6.294,6.294,0,0,1-1.95-2.234,5.641,5.641,0,0,1-.31-.706l-1.062-.026-.034,1.41-.021.883a10.222,10.222,0,0,0,.1,1.708l-.017-.929Z" transform="translate(0 -5.348)" fill="#3db2ff"/>
      <path id="Tracé_36" data-name="Tracé 36" d="M732.539,417.113a4.1,4.1,0,0,0,1.013.418,16.663,16.663,0,0,0,1.969.422q.385.062.753.137v-.059l-.013-.706a1.471,1.471,0,0,0-.539-1.118,2.4,2.4,0,0,0-1.73-.491,2.684,2.684,0,0,0-1.5.372.5.5,0,0,0-.248.486.79.79,0,0,0,.073.344A.7.7,0,0,0,732.539,417.113Z" transform="translate(-3.117 -3.827)" fill="#3db2ff"/>
      <path id="Tracé_37" data-name="Tracé 37" d="M731.34,427.218l.01.591a2.691,2.691,0,0,0,.71,1.961,3.21,3.21,0,0,0,2.342.635,2.656,2.656,0,0,0,1.67-.435.964.964,0,0,0,.371-.783,1.233,1.233,0,0,0-.087-.443.691.691,0,0,0-.212-.249,2.887,2.887,0,0,0-.816-.414,9,9,0,0,0-1.486-.362,4.649,4.649,0,0,1-1.13-.2C732.24,427.431,731.777,427.332,731.34,427.218Z" transform="translate(-2.853 -7.22)" fill="#3db2ff"/>
      <path id="Tracé_38" data-name="Tracé 38" d="M725.085,407.549A8.065,8.065,0,0,1,727.763,406a10.6,10.6,0,0,1,3.368-.576,10.869,10.869,0,0,1,3.731.532,8.424,8.424,0,0,1,2.875,1.635,7.282,7.282,0,0,1,1.829,2.485,7.579,7.579,0,0,1,.65,2.951l0,.167.129,0,.035-1.409.025-1.06a7.571,7.571,0,0,0-.525-2.976,7.263,7.263,0,0,0-1.722-2.56,8.418,8.418,0,0,0-2.8-1.756,10.861,10.861,0,0,0-3.7-.69,10.59,10.59,0,0,0-3.389.432,8.1,8.1,0,0,0-2.742,1.438,7.079,7.079,0,0,0-1.852,2.286,6.754,6.754,0,0,0-.724,2.932l0,.176a9.1,9.1,0,0,0,.027.948,6.512,6.512,0,0,1,.362-1.042A7.059,7.059,0,0,1,725.085,407.549Z" transform="translate(-0.375)" fill="#3db2ff"/>
      <path id="Tracé_39" data-name="Tracé 39" d="M743.252,420.886a8.282,8.282,0,0,1,1.138.741,5.851,5.851,0,0,1,2.13,3.47c0-.087.016-.17.018-.257l.009-.353a7.078,7.078,0,0,0-.8-3.647l-.91.017Z" transform="translate(-6.366 -5.339)" fill="#3db2ff"/>
      <path id="Tracé_40" data-name="Tracé 40" d="M755.468,431.169l-.034,1.41.454.011-.2-10.694Z" transform="translate(-9.958 -5.651)" fill="#3db2ff"/>
      <path id="Tracé_41" data-name="Tracé 41" d="M749.863,403.681l-1.41-.034-.034,1.41-.021.865.961-.018,14.831-.271,1.41-.026.026,1.41.065,3.577.253.006.034-1.41.09-3.707.034-1.41-1.41-.034Z" transform="translate(-7.884 -0.268)" fill="#3db2ff"/>
      <path id="Tracé_42" data-name="Tracé 42" d="M765.28,420.125l.1-4.3-.183,0Z" transform="translate(-12.84 -3.859)" fill="#3db2ff"/>
      <path id="Tracé_43" data-name="Tracé 43" d="M789.831,406.71a7.1,7.1,0,0,0-2.474-1.593,9.577,9.577,0,0,0-3.267-.606l-7.885-.192-1.409-.034-.035,1.409,0,.076.944-.018,7.886-.144a9.589,9.589,0,0,1,3.291.467,7.1,7.1,0,0,1,2.54,1.486,6.77,6.77,0,0,1,1.6,2.258,7.146,7.146,0,0,1,.583,2.736l.013.706c0,.191-.014.378-.028.565a5.882,5.882,0,0,0,.2-1.33l.017-.706a7.141,7.141,0,0,0-.467-2.758A6.756,6.756,0,0,0,789.831,406.71Z" transform="translate(-15.658 -0.457)" fill="#3db2ff"/>
      <path id="Tracé_44" data-name="Tracé 44" d="M788.466,428.524a.885.885,0,0,0-.018-.17,1.474,1.474,0,0,0-.164-.006h-.011l-.128,5.282-.035,1.41.475.011-.006-.347Z" transform="translate(-19.596 -7.554)" fill="#3db2ff"/>
      <path id="Tracé_45" data-name="Tracé 45" d="M774.038,431.5l-.034,1.41.466.011-.2-10.972Z" transform="translate(-15.436 -5.667)" fill="#3db2ff"/>
      <path id="Tracé_46" data-name="Tracé 46" d="M796.554,423.083a3.688,3.688,0,0,1,.864,1.626,3.811,3.811,0,0,0-.773-2.3,5.286,5.286,0,0,1-.363.4A3.588,3.588,0,0,1,796.554,423.083Z" transform="translate(-22.006 -5.803)" fill="#3db2ff"/>
      <path id="Tracé_47" data-name="Tracé 47" d="M787.446,416.657a1.946,1.946,0,0,1-1.212.271l-2.3-.056.034-1.388-.195,0,.047,2.595,2.3-.042a1.957,1.957,0,0,0,1.2-.322c.072-.068.264-.247.253-.825l-.006-.353c0-.008,0-.016,0-.023A.705.705,0,0,1,787.446,416.657Z" transform="translate(-18.317 -3.759)" fill="#3db2ff"/>
      <path id="Tracé_48" data-name="Tracé 48" d="M816.381,419.958l.123-5.068-.215,0Z" transform="translate(-27.907 -3.584)" fill="#3db2ff"/>
      <path id="Tracé_49" data-name="Tracé 49" d="M799.9,428.992l-.026-1.41,1.41-.026,3.534-.064-.1-5.443-.119,4.921-3.534-.086-1.41-.034-.034,1.41-.09,3.708-.034,1.41.482.012-.013-.689Z" transform="translate(-22.956 -5.696)" fill="#3db2ff"/>
      <path id="Tracé_50" data-name="Tracé 50" d="M801.709,404.939l-1.41-.034-.017.721.928-.017,13.773-.251,1.41-.026.026,1.41.068,3.707.025,1.379.221.005.034-1.41.09-3.707.034-1.41-1.41-.034Z" transform="translate(-23.186 -0.639)" fill="#3db2ff"/>
      <path id="Tracé_51" data-name="Tracé 51" d="M820.089,429.434l1.189-.022v-.031l-1.41-.034-3.319-.081,0,.232Z" transform="translate(-27.984 -7.824)" fill="#3db2ff"/>
      <path id="Tracé_52" data-name="Tracé 52" d="M847.513,406.927l.008.415-.219.353-5.855,9.456.177.251,6.073-8.936.233-.343.01-.415,0-.176.034-1.41-.481-.012.012.641Z" transform="translate(-35.327 -0.995)" fill="#3db2ff"/>
      <path id="Tracé_53" data-name="Tracé 53" d="M840.48,435.711l-.755.014-.43-.621-4-5.775.013.7,3.513,5.566.4.639.755.018,4.56.111,1.41.034.019-.784-.929.017Z" transform="translate(-33.513 -7.843)" fill="#3db2ff"/>
      <path id="Tracé_54" data-name="Tracé 54" d="M827.158,433.77l-1.41.026-.026-1.41-.187-10.28-.25,10.319-.034,1.41,1.41.034,3.884.094,1.41.034.008-.315-.919.017Z" transform="translate(-30.55 -5.712)" fill="#3db2ff"/>
      <path id="Tracé_55" data-name="Tracé 55" d="M834.978,411.819l.242-.392.1-4.263.034-1.41-.491-.012.02,1.1Z" transform="translate(-33.386 -0.886)" fill="#3db2ff"/>
      <path id="Tracé_56" data-name="Tracé 56" d="M852.909,433.462l-1.41.026-.026-1.41-.18-9.894L851.055,432l0,.088.026,1.41h-.064l-.019.8,1.41.034,13.359.324,1.41.034.034-1.41,0-.079-.944.017Z" transform="translate(-38.144 -5.735)" fill="#3db2ff"/>
      <path id="Tracé_57" data-name="Tracé 57" d="M873.38,420.03l.034-1.41-.109,0,.047,2.561Z" transform="translate(-44.723 -4.684)" fill="#3db2ff"/>
      <path id="Tracé_58" data-name="Tracé 58" d="M861,425.956l.02,1.1,7.2.175,1.41.034.034-1.41V425.8l-1.3.024Z" transform="translate(-41.093 -6.801)" fill="#3db2ff"/>
      <path id="Tracé_59" data-name="Tracé 59" d="M869.9,411.734l-1.41.026-7.713.141.034,1.89.163,0L861,413l7.712.187,1.41.034.034-1.41.09-3.707.034-1.41-.466-.011.066,3.643Z" transform="translate(-41.029 -1.163)" fill="#3db2ff"/>
      <path id="Tracé_60" data-name="Tracé 60" d="M890.977,434.225l-1.409.026-.026-1.41-.113-6.18a.832.832,0,0,0-.018-.17,1.44,1.44,0,0,0-.164-.006l-3.064.056.034,1.855,2.857.069a1.329,1.329,0,0,1,.164.013.891.891,0,0,1,.011.171l-.15,6.179-.034,1.409,1.409.035,3.884.094,1.409.034.035-1.409.02-.854-.96.018Z" transform="translate(-48.521 -7.004)" fill="#3db2ff"/>
      <path id="Tracé_61" data-name="Tracé 61" d="M899.308,418.195a5.166,5.166,0,0,1-.853,1.086c.094.084.185.173.272.267a3.686,3.686,0,0,1,.6.912l.005-.006a5.854,5.854,0,0,0,.96-3.083l.017-.706a7.3,7.3,0,0,0-.18-1.782l0,.192A5.858,5.858,0,0,1,899.308,418.195Z" transform="translate(-52.141 -3.582)" fill="#3db2ff"/>
      <path id="Tracé_62" data-name="Tracé 62" d="M888.461,415.515a1.7,1.7,0,0,1,1.058.3.992.992,0,0,0,.228-.8l-.007-.353a1.049,1.049,0,0,0-.346-.788,1.579,1.579,0,0,0-1.147-.307l-2.3.042.048,2.6.149,0,.018-.742Z" transform="translate(-48.452 -3.193)" fill="#3db2ff"/>
      <path id="Tracé_63" data-name="Tracé 63" d="M878.076,433.16l-1.41.026-.026-1.41-.174-9.517L876.2,433.34l-.034,1.41,1.41.034,3.884.094,1.41.034.034-1.41.01-.431-.951.017Z" transform="translate(-45.566 -5.758)" fill="#3db2ff"/>
      <path id="Tracé_64" data-name="Tracé 64" d="M912.426,427.114a6.509,6.509,0,0,0,.78.03,2.661,2.661,0,0,0,1.67-.435.966.966,0,0,0,.372-.783,1.234,1.234,0,0,0-.088-.443.688.688,0,0,0-.212-.249,2.9,2.9,0,0,0-.816-.414,9.306,9.306,0,0,0-1.681-.4,22.139,22.139,0,0,1-2.308-.468l.01.592a2.691,2.691,0,0,0,.711,1.961,1.956,1.956,0,0,0,.764.429c.229.051.453.106.69.152C912.356,427.1,912.389,427.106,912.426,427.114Z" transform="translate(-55.588 -6.258)" fill="#3db2ff"/>
      <path id="Tracé_65" data-name="Tracé 65" d="M918.572,429.3a6.925,6.925,0,0,1-1.817,2.524,8.209,8.209,0,0,1-2.81,1.584,12.735,12.735,0,0,1-7.618-.015,8.587,8.587,0,0,1-3.108-1.851,8.146,8.146,0,0,1-1.937-2.844,9.659,9.659,0,0,1-.688-3.484v-.008l-.086,0-.035,1.41-.021.883a9.642,9.642,0,0,0,.539,3.51,8.15,8.15,0,0,0,1.816,2.924,8.592,8.592,0,0,0,3.026,1.981,12.741,12.741,0,0,0,7.61.338,8.178,8.178,0,0,0,2.874-1.464,6.915,6.915,0,0,0,1.923-2.444,7.784,7.784,0,0,0,.713-3.16l.008-.353c.006-.255,0-.5-.014-.743A7.185,7.185,0,0,1,918.572,429.3Z" transform="translate(-52.729 -6.627)" fill="#3db2ff"/>
      <path id="Tracé_66" data-name="Tracé 66" d="M911.343,413.852a4.078,4.078,0,0,0,1.013.418,16.637,16.637,0,0,0,1.969.422q.385.062.753.137v-.059l-.013-.706a1.471,1.471,0,0,0-.539-1.118,2.4,2.4,0,0,0-1.729-.492,2.7,2.7,0,0,0-1.505.372.505.505,0,0,0-.248.487.788.788,0,0,0,.073.344A.7.7,0,0,0,911.343,413.852Z" transform="translate(-55.853 -2.865)" fill="#3db2ff"/>
      <path id="Tracé_67" data-name="Tracé 67" d="M904.282,420.337l-.063-.044a6.308,6.308,0,0,1-1.95-2.234,6.12,6.12,0,0,1-.516-1.409c-.008.114-.023.225-.026.34l0,.176a7.175,7.175,0,0,0,.589,3.208h.025Z" transform="translate(-53.104 -4.103)" fill="#3db2ff"/>
      <path id="Tracé_68" data-name="Tracé 68" d="M923.644,417.132l-1.589.029a8.3,8.3,0,0,1,1.138.741,5.7,5.7,0,0,1,1.742,2.258l.19,0,.034-1.409.026-1.06a7.7,7.7,0,0,0-.151-1.685l.02,1.1Z" transform="translate(-59.101 -3.914)" fill="#3db2ff"/>
    </g>
  </g>
</svg>
