<svg xmlns="http://www.w3.org/2000/svg" width="13.876" height="15.396" viewBox="0 0 13.876 15.396">
  <path id="share_FILL0_wght400_GRAD0_opsz48" d="M17.682,19.4A2.2,2.2,0,0,1,15.488,17.2a2.074,2.074,0,0,1,.029-.318,1.723,1.723,0,0,1,.087-.337L9.772,13.161a2.2,2.2,0,0,1-.712.529,1.99,1.99,0,0,1-.866.2A2.2,2.2,0,0,1,6,11.7a2.1,2.1,0,0,1,.645-1.559,2.19,2.19,0,0,1,2.4-.462,2.323,2.323,0,0,1,.731.5L15.6,6.829a1.341,1.341,0,0,1-.087-.308,1.994,1.994,0,0,1-.029-.327,2.1,2.1,0,0,1,.645-1.559,2.189,2.189,0,0,1,3.743,1.559,2.129,2.129,0,0,1-.635,1.549,2.1,2.1,0,0,1-1.559.645,2.582,2.582,0,0,1-.856-.144,1.643,1.643,0,0,1-.7-.472l-5.831,3.233a3.556,3.556,0,0,1,.067.356,2.46,2.46,0,0,1,.029.337,1.571,1.571,0,0,1-.029.289q-.029.154-.067.308l5.831,3.31a2.29,2.29,0,0,1,.674-.433,2.247,2.247,0,0,1,.885-.164,2.194,2.194,0,1,1,0,4.388Zm0-12.163a1.048,1.048,0,0,0,.741-1.78,1.048,1.048,0,0,0-1.482,1.482A1.006,1.006,0,0,0,17.682,7.233Zm-9.488,5.5a1.019,1.019,0,1,0-.741-.3A1.006,1.006,0,0,0,8.194,12.737Zm9.488,5.5a1.019,1.019,0,1,0-.741-.3A1.006,1.006,0,0,0,17.682,18.242Zm0-12.048ZM8.194,11.7Zm9.488,5.5Z" transform="translate(-6 -4)" fill="#ff314d"/>
</svg>
