<svg xmlns="http://www.w3.org/2000/svg" width="28" height="28" viewBox="0 0 28 28">
  <path id="account_circle_FILL0_wght400_GRAD0_opsz48" d="M8.97,25.875a20.158,20.158,0,0,1,4.375-2.363A13.024,13.024,0,0,1,18,22.69a13.166,13.166,0,0,1,4.672.822,20,20,0,0,1,4.392,2.363,12.287,12.287,0,0,0,2.188-3.815A12.649,12.649,0,0,0,29.9,18,11.66,11.66,0,0,0,18,6.1,11.66,11.66,0,0,0,6.1,18a12.346,12.346,0,0,0,.665,4.06A12.6,12.6,0,0,0,8.97,25.875ZM18,19.05a4.722,4.722,0,0,1-4.8-4.8A4.722,4.722,0,0,1,18,9.46a4.722,4.722,0,0,1,4.8,4.795,4.722,4.722,0,0,1-4.8,4.8ZM18,32a13.546,13.546,0,0,1-5.425-1.1A14.105,14.105,0,0,1,5.1,23.425a13.942,13.942,0,0,1,0-10.868A14.153,14.153,0,0,1,12.575,5.1a13.942,13.942,0,0,1,10.868,0A14.2,14.2,0,0,1,30.9,12.558a13.942,13.942,0,0,1,0,10.868A14.153,14.153,0,0,1,23.443,30.9,13.508,13.508,0,0,1,18,32Zm0-2.1a12.836,12.836,0,0,0,3.762-.56,11.181,11.181,0,0,0,3.623-1.96,15.233,15.233,0,0,0-3.64-1.925,10.878,10.878,0,0,0-7.49,0,15.233,15.233,0,0,0-3.64,1.925,11.181,11.181,0,0,0,3.622,1.96A12.836,12.836,0,0,0,18,29.9Zm0-12.95a2.579,2.579,0,0,0,2.695-2.7,2.7,2.7,0,1,0-5.39,0,2.579,2.579,0,0,0,2.7,2.7Zm0-2.7Zm0,13.09Z" transform="translate(-4 -4)" fill="#707070"/>
</svg>
